<?xml version="1.0" encoding="UTF-8" standalone="no"?>
<!-- Created with Inkscape (http://www.inkscape.org/) -->

<svg
   width="192.54959mm"
   height="168.02644mm"
   viewBox="0 0 192.54959 168.02644"
   version="1.1"
   id="svg1"
   xml:space="preserve"
   xmlns="http://www.w3.org/2000/svg"
   xmlns:svg="http://www.w3.org/2000/svg"><defs
     id="defs1" /><g
     id="layer1"
     transform="translate(-14.439352,-12.754602)"><path
       style="fill:none;fill-opacity:1;stroke:#2c4558;stroke-width:8;stroke-dasharray:none;stroke-opacity:1"
       d="m 116.24907,39.357056 62.67977,32.433127 9.11042,63.044177 -18.22085,28.78895"
       id="path2" /><circle
       style="fill:#36b1ff;fill-opacity:1;stroke-width:0.213918"
       id="path1-5"
       cx="178.1895"
       cy="71.840805"
       r="13.847851" /><circle
       style="fill:#36b1ff;fill-opacity:1;stroke-width:0.213918"
       id="path1-5-1"
       cx="187.40373"
       cy="134.84068"
       r="13.847851" /><circle
       style="fill:#36b1ff;fill-opacity:1;stroke-width:0.264583"
       id="path1"
       cx="116.61349"
       cy="39.357056"
       r="17.127605" /><g
       id="g7"
       transform="matrix(0.91598212,0.66528683,-0.50564836,1.0441592,90.649026,-83.838828)"><path
         style="fill:none;fill-opacity:1;stroke:#2c4558;stroke-width:8;stroke-linecap:round;stroke-dasharray:none;stroke-opacity:1"
         d="m 83.815945,111.87608 14.576697,20.77178 -15.305525,20.40735"
         id="path5" /><path
         style="fill:none;fill-opacity:1;stroke:#2c4558;stroke-width:5.39168;stroke-linecap:round;stroke-dasharray:none;stroke-opacity:1"
         d="m 62.904198,119.31793 9.824113,13.99935 -10.315314,13.75374"
         id="path3" /><path
         style="fill:none;fill-opacity:1;stroke:#2c4558;stroke-width:8;stroke-dasharray:none;stroke-opacity:1"
         d="m 40.085884,133.74111 80.536206,-0.36442 21.50061,-0.36442"
         id="path4" /><path
         style="fill:#f27264;fill-opacity:1;stroke:none;stroke-width:0.214;stroke-linecap:round;stroke-dasharray:none;stroke-opacity:1"
         d="m 118.98221,110.23619 -25.509206,-4.73742 c -2.324097,-0.27276 -3.035181,-1.2858 -3.82638,-2.00429 L 82.904906,91.286501 c -2.463147,-6.546277 0.57961,-7.059183 4.190799,-6.559508 14.550855,3.693431 23.430015,9.868231 30.246625,16.945397 21.08752,4.93307 48.71629,19.35807 49.56073,31.33988 -0.24433,14.22913 -30.67925,26.67314 -48.8319,31.33988 -8.71975,8.85433 -18.194457,15.29282 -29.335578,16.39877 -3.493312,0.10465 -7.088755,0.22934 -4.919631,-5.10184 l 6.923926,-12.93681 c 0.580143,-1.48442 1.910556,-2.46285 4.190796,-2.73313 l 24.233747,-3.64417 c -5.72586,-15.85888 -5.63136,-31.21164 -0.18221,-46.09878 z"
         id="path7" /><circle
         style="fill:#2c4558;fill-opacity:1;stroke-width:0.0922171;stroke-dasharray:none"
         id="path1-5-1-1"
         cx="137.72458"
         cy="127.11126"
         r="5.9673295" /><path
         style="fill:#f27264;fill-opacity:1;stroke:none;stroke-width:0.214;stroke-linecap:round;stroke-dasharray:none;stroke-opacity:1"
         d="M 25.479241,133.64846 15.203229,101.52665 c -2.326718,-9.522104 0.851612,-8.583678 6.957411,-4.638272 10.263859,6.632232 46.814161,38.142872 5.153636,69.574102 -7.238897,5.46146 -15.635534,6.55193 -11.626945,-4.01617 z"
         id="path6" /></g></g></svg>
